/* XPM */
static const char *const view_shaded_xpm[] = {
"16 16 164 2",
"  	c None",
". 	c #24536C",
"+ 	c #185D84",
"@ 	c #9A856E",
"# 	c #927E68",
"$ 	c #927A61",
"% 	c #92775C",
"& 	c #927557",
"* 	c #927354",
"= 	c #927355",
"- 	c #917457",
"; 	c #5E6B6B",
"> 	c #25526A",
", 	c #185B80",
"' 	c #D4A780",
") 	c #FEAC6C",
"! 	c #FFA45C",
"~ 	c #FF9C4D",
"{ 	c #FF9540",
"] 	c #FF8F36",
"^ 	c #FF8C2F",
"/ 	c #FE8C2F",
"( 	c #D48747",
"_ 	c #005182",
": 	c #185A7F",
"< 	c #D4AC89",
"[ 	c #FEB276",
"} 	c #FFAA65",
"| 	c #FFA055",
"1 	c #FF9744",
"2 	c #FF8F35",
"3 	c #FF8828",
"4 	c #FE821F",
"5 	c #D47D35",
"6 	c #005385",
"7 	c #D48746",
"8 	c #917356",
"9 	c #2A5F7B",
"0 	c #5F7780",
"a 	c #918678",
"b 	c #92826F",
"c 	c #927D67",
"d 	c #92795E",
"e 	c #927456",
"f 	c #926F4D",
"g 	c #926B46",
"h 	c #9A683A",
"i 	c #00558A",
"j 	c #D47C32",
"k 	c #FE892C",
"l 	c #927253",
"m 	c #5B717A",
"n 	c #928C81",
"o 	c #928778",
"p 	c #92785E",
"q 	c #927455",
"r 	c #926A45",
"s 	c #5B5D55",
"t 	c #9A6637",
"u 	c #FE801A",
"v 	c #FF892B",
"w 	c #929088",
"x 	c #FFC597",
"y 	c #FFBC86",
"z 	c #FFB275",
"A 	c #FFA864",
"B 	c #FF9F53",
"C 	c #FF9642",
"D 	c #FF8D32",
"E 	c #FF8524",
"F 	c #926A43",
"G 	c #926943",
"H 	c #FF8522",
"I 	c #FF8C30",
"J 	c #92918A",
"K 	c #FFC79B",
"L 	c #FFBD8A",
"M 	c #FFB579",
"N 	c #FFAB69",
"O 	c #FFA359",
"P 	c #FF9A4A",
"Q 	c #FF933C",
"R 	c #FF8D31",
"S 	c #926E4B",
"T 	c #FF8B30",
"U 	c #FF923B",
"V 	c #927559",
"W 	c #92928D",
"X 	c #FFCAA0",
"Y 	c #FFC190",
"Z 	c #FFB880",
"` 	c #FFB071",
" .	c #FFA762",
"..	c #FFA156",
"+.	c #FF9A49",
"@.	c #FF9948",
"#.	c #929490",
"$.	c #FFCEA7",
"%.	c #FFC698",
"&.	c #FFBE89",
"*.	c #FFB57A",
"=.	c #FFAE6E",
"-.	c #FFA258",
";.	c #FF9E50",
">.	c #FF9D50",
",.	c #FFA257",
"'.	c #927C65",
").	c #929694",
"!.	c #FFD3B0",
"~.	c #FFCBA1",
"{.	c #FFC393",
"].	c #FFB67A",
"^.	c #FFAF70",
"/.	c #FFAA67",
"(.	c #FFA761",
"_.	c #FFA760",
":.	c #FEAA66",
"<.	c #9A836C",
"[.	c #1E4C65",
"}.	c #929999",
"|.	c #FFD8BA",
"1.	c #FFD0AC",
"2.	c #FFC99F",
"3.	c #FFC293",
"4.	c #FFBC88",
"5.	c #FFB77E",
"6.	c #FFB477",
"7.	c #FFB072",
"8.	c #92816D",
"9.	c #FEB071",
"0.	c #D4A57C",
"a.	c #155A81",
"b.	c #929B9E",
"c.	c #FFDEC5",
"d.	c #FFD7B7",
"e.	c #FFD1AC",
"f.	c #FFC08E",
"g.	c #FFBC87",
"h.	c #FFBA82",
"i.	c #928676",
"j.	c #918576",
"k.	c #D4AB86",
"l.	c #929EA3",
"m.	c #FFE5D0",
"n.	c #FFDEC4",
"o.	c #FFD7B9",
"p.	c #FFD1AE",
"q.	c #FFCDA6",
"r.	c #FFC99D",
"s.	c #FFC598",
"t.	c #FFC494",
"u.	c #928A7F",
"v.	c #5F767F",
"w.	c #185A80",
"x.	c #5B7A8A",
"y.	c #929FA3",
"z.	c #929C9D",
"A.	c #929898",
"B.	c #929693",
"C.	c #92938F",
"D.	c #92928C",
"E.	c #929089",
"F.	c #928F86",
"G.	c #5B7179",
"          . . . . . . . . . .   ",
"        + @ # $ % & * = - ; > . ",
"      , ' ) ! ~ { ] ^ / ( _ ; . ",
"    : < [ } | 1 2 3 4 5 6 7 8 . ",
"  9 0 a b c d e f g h i j k l . ",
". m n o b c p q f r s t u v l . ",
". w x y z A B C D E F G H I = . ",
". J K L M N O P Q R S S T U V . ",
". W X Y Z `  ...+.{ * * { @.p . ",
". #.$.%.&.*.=. .-.;.% % >.,.'.. ",
". ).!.~.{.y ].^./.(.'.'._.:.<.[.",
". }.|.1.2.3.4.5.6.7.8.8.9.0.a.  ",
". b.c.d.e.X x f.g.h.i.j.k.,     ",
". l.m.n.o.p.q.r.s.t.u.v.w.      ",
". x.y.z.A.B.C.D.E.F.G.9         ",
"  . . . . . . . . . .           "};
