/* XPM */
static const char *const zoom_extend_xpm[] = {
"16 16 138 2",
"  	c None",
". 	c #4686BA",
"+ 	c #4585B9",
"@ 	c #4486BB",
"# 	c #3C84BF",
"$ 	c #78BCEB",
"% 	c #3F82B9",
"& 	c #989798",
"* 	c #919396",
"= 	c #77BCEB",
"- 	c #4586BB",
"; 	c #4183B9",
"> 	c #71B6E8",
", 	c #377FB9",
"' 	c #DDD5CF",
") 	c #FFFFFF",
"! 	c #DDD4CF",
"~ 	c #73BAEB",
"{ 	c #4386BD",
"] 	c #3A7FB9",
"^ 	c #72B9EA",
"/ 	c #367BB4",
"( 	c #6DACE1",
"_ 	c #6EAEE0",
": 	c #74B3E2",
"< 	c #7ABAE7",
"[ 	c #387FB9",
"} 	c #4286BD",
"| 	c #97908D",
"1 	c #D6CDC8",
"2 	c #367CB5",
"3 	c #5298CD",
"4 	c #DFEEFA",
"5 	c #D7EBF8",
"6 	c #C1E0F3",
"7 	c #ADD8F3",
"8 	c #5499CD",
"9 	c #377BB4",
"0 	c #D5CDC8",
"a 	c #94908E",
"b 	c #8D8B8A",
"c 	c #FFFBF7",
"d 	c #6EACE1",
"e 	c #E0EFFA",
"f 	c #D5E9F8",
"g 	c #BDE0F4",
"h 	c #ADDAF2",
"i 	c #9ED4F1",
"j 	c #88CDF0",
"k 	c #8FCEF0",
"l 	c #F1F2F1",
"m 	c #8A8B8C",
"n 	c #878789",
"o 	c #FFFCF8",
"p 	c #58A3DC",
"q 	c #D9ECF9",
"r 	c #B0DDF3",
"s 	c #A1DBF3",
"t 	c #92D7F3",
"u 	c #90D5F2",
"v 	c #82CCF0",
"w 	c #FFFAF7",
"x 	c #85878A",
"y 	c #858586",
"z 	c #FCF8F3",
"A 	c #5EA9DF",
"B 	c #C3E2F4",
"C 	c #98DDF5",
"D 	c #9DE3F8",
"E 	c #9BE1F7",
"F 	c #8BD5F4",
"G 	c #F9F5F2",
"H 	c #838587",
"I 	c #878583",
"J 	c #F3EEEA",
"K 	c #7AB8E6",
"L 	c #A9D7F2",
"M 	c #9ED5F1",
"N 	c #A8EFFF",
"O 	c #A2EAFB",
"P 	c #9BDEF6",
"Q 	c #EDE9E9",
"R 	c #808387",
"S 	c #7A7572",
"T 	c #C3BBB6",
"U 	c #387DB6",
"V 	c #5599CD",
"W 	c #87CCF0",
"X 	c #91D5F2",
"Y 	c #9BE1F8",
"Z 	c #9AE5FC",
"` 	c #D0E5EC",
" .	c #B4B3B5",
"..	c #848992",
"+.	c #4487BE",
"@.	c #3B81BA",
"#.	c #73B9EB",
"$.	c #8ECBEE",
"%.	c #84CEF1",
"&.	c #8CD7F6",
"*.	c #9BDDF6",
"=.	c #CDE2EB",
"-.	c #D4D3D3",
";.	c #7D7E81",
">.	c #CFD5DD",
",.	c #CA8F37",
"'.	c #72B7E9",
").	c #3C81BB",
"!.	c #BBB4AE",
"~.	c #E3DFDD",
"{.	c #E7E3E1",
"].	c #E6E3E1",
"^.	c #DFDCDB",
"/.	c #AFAFAF",
"(.	c #797B7D",
"_.	c #B5B7B9",
":.	c #E4E9F0",
"<.	c #E9DCBC",
"[.	c #CA9240",
"}.	c #72716F",
"|.	c #7A7C7D",
"1.	c #787A7C",
"2.	c #7A7B7D",
"3.	c #777A7D",
"4.	c #92979D",
"5.	c #9DA4AE",
"6.	c #D6C09E",
"7.	c #FFE9AE",
"8.	c #C69140",
"9.	c #4187C0",
"0.	c #B5813D",
"a.	c #BF9E73",
"b.	c #FFAC21",
"c.	c #E0B55F",
"d.	c #C69145",
"e.	c #AC8148",
"f.	c #AA8049",
"g.	c #AC8249",
". + @ #             # @ + .     ",
"+ $ %   & * * * * &   % = +     ",
"- ; > , ' ) ) ) ) ! , ~ % -     ",
"{   ] ^ / ( _ : < / ^ [   }     ",
"  | 1 2 3 4 5 6 7 8 9 0 a       ",
"  b c d e f g h i j k l m       ",
"  n o p q g r s t u v w x       ",
"  y z A B h s C D E F G H       ",
"  I J K L M t D N O P Q R       ",
"  S T U V W X Y O Z `  ...      ",
"+.  @.#.U $.%.&.*.=.-.;.>.,.    ",
"- ; '.).!.~.{.].^./.(._.:.<.[.  ",
"+ $ ;   }.|.1.1.2.3.4.5.6.7.8.  ",
". + - 9.            0.a.b.c.d.  ",
"                      e.f.g.    ",
"                                "};
