/* XPM */
static const char *const zoom_out_xpm[] = {
"16 16 153 2",
"  	c None",
". 	c #CD9541",
"+ 	c #CC923D",
"@ 	c #CC913A",
"# 	c #C9903E",
"$ 	c #DDB168",
"% 	c #FEEAB2",
"& 	c #FFFFCD",
"* 	c #FFFECC",
"= 	c #FEE9B2",
"- 	c #C78F3F",
"; 	c #E8C481",
"> 	c #F4EFC9",
", 	c #87B7D8",
"' 	c #509EE2",
") 	c #55A3E3",
"! 	c #59A8E6",
"~ 	c #93C3DD",
"{ 	c #F6F1CA",
"] 	c #E7C380",
"^ 	c #C48F43",
"/ 	c #D9AD65",
"( 	c #F3EDC3",
"_ 	c #57A0DF",
": 	c #A2CCF0",
"< 	c #DCEDFA",
"[ 	c #D0E7F7",
"} 	c #BBDDF4",
"| 	c #94CAF0",
"1 	c #70BAEB",
"2 	c #F7EFC3",
"3 	c #D9AC64",
"4 	c #BF8A3F",
"5 	c #FDE1A3",
"6 	c #87B6D5",
"7 	c #A3CDF1",
"8 	c #E6F3FB",
"9 	c #CEE8F7",
"0 	c #BCE1F5",
"a 	c #ADDAF3",
"b 	c #98D1F1",
"c 	c #7AC4EF",
"d 	c #A1CFE0",
"e 	c #FCDFA2",
"f 	c #BE883D",
"g 	c #FFF3B1",
"h 	c #51A0E4",
"i 	c #D7EAFA",
"j 	c #D4EDFB",
"k 	c #C4E8FB",
"l 	c #B6E5FB",
"m 	c #A8E2F9",
"n 	c #93D9F7",
"o 	c #8BD2F4",
"p 	c #79C9F7",
"q 	c #FFF0B0",
"r 	c #BD883D",
"s 	c #BA863E",
"t 	c #FFEFA8",
"u 	c #57A6E7",
"v 	c #D7EDFC",
"w 	c #1F5888",
"x 	c #245C8B",
"y 	c #275D8C",
"z 	c #285C8B",
"A 	c #255888",
"B 	c #98DFFA",
"C 	c #84D3FB",
"D 	c #FFECA7",
"E 	c #B9863E",
"F 	c #B88440",
"G 	c #FFEBA4",
"H 	c #5BAAEA",
"I 	c #B9DEF7",
"J 	c #B3E0F7",
"K 	c #A9E2F9",
"L 	c #9FE5FD",
"M 	c #A6EEFF",
"N 	c #A8F1FF",
"O 	c #9EE6FD",
"P 	c #89DAFF",
"Q 	c #FFE8A2",
"R 	c #B7843F",
"S 	c #B58341",
"T 	c #F9D58D",
"U 	c #93BFD2",
"V 	c #8AC5F0",
"W 	c #98D2F0",
"X 	c #8FD4F3",
"Y 	c #9ADFF7",
"Z 	c #A4ECFC",
"` 	c #AAF3FF",
" .	c #9CE8FF",
"..	c #B2DFE1",
"+.	c #F6D28B",
"@.	c #B18040",
"#.	c #99703A",
"$.	c #CC9F5B",
"%.	c #F5DEA0",
"&.	c #72BAEC",
"*.	c #7AC4F1",
"=.	c #89D0F3",
"-.	c #93DBF6",
";.	c #9BE3FB",
">.	c #99E4FF",
",.	c #F6DFA0",
"'.	c #C79B59",
").	c #BC8842",
"!.	c #AD7E42",
"~.	c #DCB068",
"{.	c #F7DB99",
"].	c #A0CBD4",
"^.	c #7ACBFA",
"/.	c #85D4FD",
"(.	c #89DBFF",
"_.	c #B2DDDE",
":.	c #F7DE9A",
"<.	c #D6AB67",
"[.	c #B98D54",
"}.	c #FFD46B",
"|.	c #C49041",
"1.	c #AA7D43",
"2.	c #C89B58",
"3.	c #F6CC7B",
"4.	c #FFDD87",
"5.	c #FFDC85",
"6.	c #FFDC86",
"7.	c #F4CA7B",
"8.	c #C49859",
"9.	c #B7813D",
"0.	c #FFBC59",
"a.	c #FFE5B1",
"b.	c #FFD66E",
"c.	c #C89243",
"d.	c #906B3C",
"e.	c #A87C43",
"f.	c #A97B42",
"g.	c #A87B42",
"h.	c #A77B43",
"i.	c #A77F48",
"j.	c #FF9B13",
"k.	c #FFA01D",
"l.	c #FFBF5B",
"m.	c #FFECB9",
"n.	c #C59141",
"o.	c #A7814E",
"p.	c #FF9F1A",
"q.	c #FFAD29",
"r.	c #E0B762",
"s.	c #C69145",
"t.	c #A7804C",
"u.	c #A87F4B",
"v.	c #AC8149",
"      . + @ @ @ + .             ",
"    # $ % & * & = $ #           ",
"  - ; > , ' ) ! ~ { ] -         ",
"^ / ( _ : < [ } | 1 2 3 ^       ",
"4 5 6 7 8 9 0 a b c d e 4       ",
"f g h i j k l m n o p q r       ",
"s t u v w x y z A B C D E       ",
"F G H I J K L M N O P Q R       ",
"S T U V W X Y Z `  ...+.@.      ",
"#.$.%.&.*.=.-.;. .>.,.'.).      ",
"  !.~.{.].^./.(._.:.<.[.}.|.    ",
"    1.2.3.4.5.6.7.8.9.0.a.b.c.  ",
"      d.e.f.g.g.h.i.j.k.l.m.n.  ",
"                    o.p.q.r.s.  ",
"                      t.u.v.    ",
"                                "};
