/* XPM */
static const char *const zoom_in_xpm[] = {
"16 16 148 2",
"  	c None",
". 	c #CD9541",
"+ 	c #CC923D",
"@ 	c #CC913A",
"# 	c #C9903E",
"$ 	c #DDB168",
"% 	c #FEEAB2",
"& 	c #FFFFCD",
"* 	c #FFFECC",
"= 	c #FEE9B2",
"- 	c #C78F3F",
"; 	c #E8C481",
"> 	c #F4EFC9",
", 	c #87B8D9",
"' 	c #519FE3",
") 	c #56A4E4",
"! 	c #5AA8E6",
"~ 	c #93C3DD",
"{ 	c #F6F1CA",
"] 	c #E7C380",
"^ 	c #C48F43",
"/ 	c #D9AD65",
"( 	c #F3EDC3",
"_ 	c #57A0DF",
": 	c #A3CDF1",
"< 	c #DFEFFC",
"[ 	c #D6ECFB",
"} 	c #BEE0F6",
"| 	c #95CBF0",
"1 	c #70BAEB",
"2 	c #F7EFC3",
"3 	c #D9AC64",
"4 	c #BF8A3F",
"5 	c #FDE1A3",
"6 	c #87B6D5",
"7 	c #E7F4FC",
"8 	c #D5EEFC",
"9 	c #1F5989",
"0 	c #B4E1F8",
"a 	c #9AD2F2",
"b 	c #7AC4EF",
"c 	c #A1CFE0",
"d 	c #FCDFA2",
"e 	c #BE883D",
"f 	c #FFF3B1",
"g 	c #51A0E4",
"h 	c #D7EAFA",
"i 	c #D6EFFD",
"j 	c #CBEFFF",
"k 	c #296190",
"l 	c #AFE9FF",
"m 	c #95DAF7",
"n 	c #8BD2F4",
"o 	c #79C9F7",
"p 	c #FFF0B0",
"q 	c #BD883D",
"r 	c #BA863E",
"s 	c #FFEFA8",
"t 	c #57A6E7",
"u 	c #D7EDFC",
"v 	c #205989",
"w 	c #306694",
"x 	c #2D618F",
"y 	c #265988",
"z 	c #98DFFA",
"A 	c #84D3FB",
"B 	c #FFECA7",
"C 	c #B9863E",
"D 	c #B88440",
"E 	c #FFEBA4",
"F 	c #5BAAEA",
"G 	c #B9DEF7",
"H 	c #B5E1F8",
"I 	c #ACF5FF",
"J 	c #A9F2FF",
"K 	c #9EE6FD",
"L 	c #89DAFF",
"M 	c #FFE8A2",
"N 	c #B7843F",
"O 	c #B58341",
"P 	c #F9D58D",
"Q 	c #93BFD2",
"R 	c #8AC5F0",
"S 	c #99D3F1",
"T 	c #95DAF8",
"U 	c #ABF4FF",
"V 	c #9CE8FF",
"W 	c #B2DFE1",
"X 	c #F6D28B",
"Y 	c #B18040",
"Z 	c #99703A",
"` 	c #CC9F5B",
" .	c #F5DEA0",
"..	c #72BAEC",
"+.	c #7BC5F1",
"@.	c #8BD2F5",
"#.	c #98E0FA",
"$.	c #9EE6FE",
"%.	c #9DE9FF",
"&.	c #99E4FF",
"*.	c #F6DFA0",
"=.	c #C79B59",
"-.	c #BC8842",
";.	c #AD7E42",
">.	c #DCB068",
",.	c #F7DB99",
"'.	c #A0CBD4",
").	c #7ACBFB",
"!.	c #85D5FE",
"~.	c #89DBFF",
"{.	c #B2DDDE",
"].	c #F7DE9A",
"^.	c #D6AB67",
"/.	c #B98D54",
"(.	c #FFD46B",
"_.	c #C49041",
":.	c #AA7D43",
"<.	c #C89B58",
"[.	c #F6CC7B",
"}.	c #FFDD87",
"|.	c #FFDC85",
"1.	c #FFDC86",
"2.	c #F4CA7B",
"3.	c #C49859",
"4.	c #B7813D",
"5.	c #FFBC59",
"6.	c #FFE5B1",
"7.	c #FFD66E",
"8.	c #C89243",
"9.	c #906B3C",
"0.	c #A87C43",
"a.	c #A97B42",
"b.	c #A87B42",
"c.	c #A77B43",
"d.	c #A77F48",
"e.	c #FF9B13",
"f.	c #FFA01D",
"g.	c #FFBF5B",
"h.	c #FFECB9",
"i.	c #C59141",
"j.	c #A7814E",
"k.	c #FF9F1A",
"l.	c #FFAD29",
"m.	c #E0B762",
"n.	c #C69145",
"o.	c #A7804C",
"p.	c #A87F4B",
"q.	c #AC8149",
"      . + @ @ @ + .             ",
"    # $ % & * & = $ #           ",
"  - ; > , ' ) ! ~ { ] -         ",
"^ / ( _ : < [ } | 1 2 3 ^       ",
"4 5 6 : 7 8 9 0 a b c d 4       ",
"e f g h i j k l m n o p q       ",
"r s t u v k w x y z A B C       ",
"D E F G H l x I J K L M N       ",
"O P Q R S T y J U V W X Y       ",
"Z `  ...+.@.#.$.%.&.*.=.-.      ",
"  ;.>.,.'.).!.~.{.].^./.(._.    ",
"    :.<.[.}.|.1.2.3.4.5.6.7.8.  ",
"      9.0.a.b.b.c.d.e.f.g.h.i.  ",
"                    j.k.l.m.n.  ",
"                      o.p.q.    ",
"                                "};
