/* XPM */
static const char *const zoom_selection_xpm[] = {
"16 16 139 2",
"  	c None",
". 	c #707070",
"+ 	c #656565",
"@ 	c #FFFFFF",
"# 	c #767676",
"$ 	c #B4B6B9",
"% 	c #B8BABC",
"& 	c #B9BBBD",
"* 	c #BABCBE",
"= 	c #BBBDBF",
"- 	c #BBBDC0",
"; 	c #BBBEC0",
"> 	c #B9BCBE",
", 	c #B5B7B9",
"' 	c #BDBFC1",
") 	c #C1C3C6",
"! 	c #C3C5C7",
"~ 	c #C1C3C5",
"{ 	c #A8AAAE",
"] 	c #909295",
"^ 	c #8C8E91",
"/ 	c #A8AAAD",
"( 	c #C0C2C4",
"_ 	c #C2C5C6",
": 	c #C8CACA",
"< 	c #CBCDCE",
"[ 	c #96989A",
"} 	c #B3B3B4",
"| 	c #FFFDFB",
"1 	c #FFFCFA",
"2 	c #B3B2B4",
"3 	c #929496",
"4 	c #777777",
"5 	c #C7C9CA",
"6 	c #CDCFD0",
"7 	c #AAACAF",
"8 	c #AEAFB1",
"9 	c #82B7E3",
"0 	c #85BAE5",
"a 	c #87BEE6",
"b 	c #91C5EA",
"c 	c #ACADAF",
"d 	c #D1D2D3",
"e 	c #CCCECF",
"f 	c #D4D6D6",
"g 	c #87898B",
"h 	c #F5F2EF",
"i 	c #82B6E3",
"j 	c #E2EFFA",
"k 	c #D1E8F7",
"l 	c #B5DCF3",
"m 	c #90CBED",
"n 	c #94CBED",
"o 	c #F4F1EF",
"p 	c #919395",
"q 	c #7E7E7E",
"r 	c #D0D2D3",
"s 	c #D9DBDB",
"t 	c #7F8084",
"u 	c #FFFBF9",
"v 	c #77B3E3",
"w 	c #D2E9F7",
"x 	c #B7DEF4",
"y 	c #A2DAF3",
"z 	c #8FD4F2",
"A 	c #7FCAEF",
"B 	c #FEFAF8",
"C 	c #85878B",
"D 	c #D5D6D9",
"E 	c #DEDFE1",
"F 	c #7C7E80",
"G 	c #F9F5F3",
"H 	c #75B6E4",
"I 	c #B7DDF3",
"J 	c #A3DAF3",
"K 	c #99DFF6",
"L 	c #9EE5F9",
"M 	c #8DD9F6",
"N 	c #F8F4F2",
"O 	c #848688",
"P 	c #7F7F7F",
"Q 	c #DADBDD",
"R 	c #E2E3E5",
"S 	c #7E8084",
"T 	c #E5E2E0",
"U 	c #8BBFE6",
"V 	c #8CCAEE",
"W 	c #8ED4F1",
"X 	c #A5EEFF",
"Y 	c #A9E3F5",
"Z 	c #E4E1E0",
"` 	c #808388",
" .	c #DEE0E1",
"..	c #E4E6E7",
"+.	c #AFB1B1",
"@.	c #9B9B9D",
"#.	c #E5E6E7",
"$.	c #90C7E8",
"%.	c #81CCF1",
"&.	c #8EDAF7",
"*.	c #A8E1F5",
"=.	c #E6E7E7",
"-.	c #9B9C9E",
";.	c #AAAFB4",
">.	c #D09234",
",.	c #E2E3E4",
"'.	c #EBECED",
").	c #86898B",
"!.	c #959697",
"~.	c #D9D6D6",
"{.	c #E7E3E1",
"].	c #E6E3E1",
"^.	c #D9D6D7",
"/.	c #999A9C",
"(.	c #82858A",
"_.	c #E7ECF2",
":.	c #EADDBC",
"<.	c #CA9340",
"[.	c #C7C8C9",
"}.	c #808284",
"|.	c #787A7C",
"1.	c #787B7E",
"2.	c #858A90",
"3.	c #9EA6B0",
"4.	c #D7C19E",
"5.	c #FFE9AE",
"6.	c #C69140",
"7.	c #6E6E6E",
"8.	c #7B7B7B",
"9.	c #80807F",
"0.	c #7D8084",
"a.	c #B5823E",
"b.	c #BF9E74",
"c.	c #FFAC21",
"d.	c #E0B55F",
"e.	c #C69145",
"f.	c #AC8148",
"g.	c #AA8049",
"h.	c #AC8249",
"  .   +   +   +   +   +   .     ",
"  @ @ @ @ @ @ @ @ @ @ @ @ @     ",
"# @ $ % % & * = - ; = > , @ #   ",
"  @ ' ) ! ~ { ] ^ ^ ] / ( @     ",
"# @ _ : < [ } | @ @ 1 2 3 @ 4   ",
"  @ 5 6 7 8 @ 9 0 a b @ c d     ",
"# @ e f g h i j k l m n o p q   ",
"  @ r s t u v w x y z A B C     ",
"# @ D E F G H I J K L M N O P   ",
"  @ Q R S T U V W L X Y Z `     ",
"# @  ...+.@.#.$.%.&.*.=.-.;.>.  ",
"  @ ,.#.'.).!.~.{.].^./.(._.:.<.",
"# @ @ @ @ @ [.}.|.|.1.2.3.4.5.6.",
"    +   7.  8.  9.  0.a.b.c.d.e.",
"                        f.g.h.  ",
"                                "};
